<svg width="727" height="218" viewBox="0 0 727 218" fill="none" xmlns="http://www.w3.org/2000/svg">
<path d="M254.172 210.447C250.353 215.467 245.24 216.646 239.811 216.79C235.499 216.904 231.18 216.927 226.87 216.77C223.858 216.659 220.882 215.97 217.858 215.767C211.825 215.366 205.89 214.056 199.976 212.792C195.327 211.799 190.61 210.786 186.252 208.65C182.377 206.753 179.3 203.862 178.487 198.884C178.121 196.634 178.061 196.745 176.005 196.836C172.9 196.973 169.924 196.095 166.948 195.249C163.638 194.305 160.43 193.012 157.272 191.627C153.935 190.167 150.715 188.38 147.483 186.636C142.286 183.833 137.14 180.92 132.289 177.487C127.015 173.754 121.601 170.063 117.913 164.246C115.946 161.146 115.148 157.671 116.032 153.885C116.169 153.307 116.294 152.723 116.413 152.141C116.431 152.05 116.38 151.942 116.333 151.681C114.892 152.461 113.431 153.118 112.091 154C108.118 156.619 103.954 157.276 99.3972 156.234C95.8197 155.414 92.9326 153.291 90.0426 151.129C84.7894 147.199 79.9321 142.731 75.4081 137.822C70.0864 132.047 64.976 126.06 60.3806 119.574C57.8597 116.017 55.6006 112.254 53.4993 108.37C50.4546 102.743 50.5855 94.8711 54.0916 89.8999C55.5917 87.7703 57.562 86.2613 59.8895 85.2521C63.4284 83.7202 66.9017 82.012 70.5209 80.3266C69.0953 80.1633 67.8065 80.5226 66.5386 80.7414C61.1634 81.6657 55.8298 82.9036 50.4367 83.6385C46.7133 84.1481 42.9929 84.8144 39.2576 85.1247C34.4658 85.5199 30.5102 83.0866 27.0934 79.6309C22.242 74.7283 18.6615 68.7641 15.2744 62.5942C13.3845 59.1484 11.7505 55.5718 10.0034 52.0541C8.23245 48.4939 6.88715 44.7051 5.40792 40.9849C3.47926 36.1378 2.00598 31.1372 0.970218 25.9994C-0.00601608 21.149 -0.547707 16.217 0.833307 11.3373C2.08932 6.89849 4.42871 3.72371 8.78902 2.3225C13.1612 0.918024 17.5989 1.10093 22.0217 0.692654C32.1085 -0.238221 42.2191 0.0492068 52.3207 0.0198108C60.8479 -0.00305284 69.378 0.0132783 77.9052 0.0165445C96.403 0.0198108 114.904 -0.0226502 133.402 0.0557393C139.423 0.0818692 145.441 0.503213 151.462 0.617531C157.254 0.725316 163.058 0.486882 168.844 0.735115C176.475 1.05847 184.106 1.05194 191.735 1.114C197.803 1.16299 203.857 1.62026 209.929 1.5582C215.923 1.49941 221.918 1.96975 227.915 1.96975C337.586 1.99588 447.258 1.97302 556.93 2.03507C562.659 2.03507 568.12 3.53101 572.633 7.84243C573.362 8.53814 573.933 9.3449 574.424 10.217C575.029 11.2883 575.785 11.6378 576.924 11.3798C580.466 10.5861 584.014 9.81523 587.577 9.13586C593.622 7.98288 599.619 6.5392 605.703 5.61486C607.908 5.27844 610.09 4.71665 612.259 4.18425C615.905 3.29257 619.599 2.57074 623.281 2.58707C629.715 2.61646 635.528 4.47168 639.659 10.6449C642.579 15.0085 643.186 20.0385 643.734 25.0653C644.115 28.5536 644.073 32.1628 643.74 35.6642C643.305 40.2238 642.79 44.8521 640.403 48.8597C640.127 49.3268 639.865 49.7873 640.127 50.3687C641.749 53.9812 642.103 57.979 642.924 61.8234C643.282 63.4957 643.787 64.1 645.439 64.0934C665.53 64.0216 685.62 63.9269 705.707 64.1261C711.258 64.1816 716.693 65.7396 720.797 70.2666C722.749 72.4191 724.363 74.9275 725.229 78.0468C727.003 84.4355 727.151 90.9647 726.675 97.4514C726.247 103.305 725.122 109.19 721.065 113.567C719.044 115.749 716.785 117.601 713.889 118.571C708.02 120.544 702.046 120.357 696.052 120.322C693.799 120.309 693.793 120.322 693.793 122.726C693.793 128.007 693.817 133.285 693.784 138.567C693.757 142.806 692.816 146.928 691.525 150.822C690.677 153.376 688.938 155.639 686.891 157.491C682.429 161.528 677.09 162.809 671.625 162.76C651.937 162.59 632.251 162.603 612.563 162.59C596.053 162.58 579.541 162.574 563.031 162.596C558.62 162.603 554.203 162.93 549.801 162.763C543.706 162.531 537.622 162.923 531.533 162.894C513.389 162.802 495.245 162.91 477.102 162.76C471.7 162.714 466.292 162.521 460.892 162.619C456.779 162.694 452.666 162.907 448.553 162.796C431.049 162.332 413.542 162.694 396.035 162.596C391.872 162.574 387.705 162.884 383.547 162.753C376.749 162.541 369.972 162.867 363.192 163.227C359.293 163.433 355.54 164.344 352.033 166.32C350.34 167.274 348.807 168.381 347.685 170.154C344.682 174.894 341.17 179.182 337.646 183.448C335.646 185.872 333.476 188.132 330.821 189.677C328.458 191.052 325.907 191.816 323.238 191.006C321.851 190.585 321.139 191.081 320.276 192.25C317.684 195.771 314.261 198.113 310.63 200.217C306.21 202.781 301.683 205.129 297.037 207.06C292.203 209.068 287.581 211.649 282.527 213.141C278.819 214.235 275.179 215.682 271.408 216.581C269.426 217.051 267.42 217.596 265.408 217.694C260.785 217.923 257.133 215.901 254.732 211.44C254.657 211.299 254.604 211.142 254.529 211.005C254.452 210.868 254.359 210.741 254.163 210.44L254.172 210.447ZM317.541 178.258C317.636 178.258 317.731 178.258 317.827 178.258C318.386 179.401 318.975 180.525 319.499 181.688C321.699 186.564 325.717 186.793 328.931 184.647C332.342 182.37 334.705 178.911 337.316 175.763C339.405 173.244 341.438 170.635 343.17 167.77C343.929 166.513 344.789 165.245 345.837 164.298C349.033 161.407 352.822 159.797 356.819 158.788C362.213 157.426 367.737 157.423 373.216 157.259C380.948 157.027 388.69 157.158 396.425 157.155C418.248 157.148 440.073 157.05 461.896 157.181C485.397 157.321 508.901 156.91 532.399 157.468C536.31 157.563 540.217 157.338 544.128 157.201C549.727 157.008 555.334 157.152 560.939 157.152C593.726 157.152 626.51 157.152 659.297 157.152C660.089 157.152 660.883 157.243 661.675 157.22C667.684 157.034 673.759 158.092 679.661 155.907C681.754 155.133 683.456 153.797 684.902 152.092C687.971 148.476 688.608 143.851 688.706 139.22C688.87 131.659 688.742 124.091 688.697 116.523C688.688 115.213 689.084 114.678 690.334 114.7C694.055 114.762 697.775 114.664 701.495 114.74C705.177 114.811 708.829 114.743 712.365 113.433C716.398 111.937 719.252 108.883 720.374 104.523C722.467 96.3899 722.309 88.1035 720.58 79.8693C720.023 77.2106 718.49 75.2411 716.678 73.5165C713.38 70.3809 709.341 69.5186 705.186 69.5056C683.807 69.4337 662.428 69.4566 641.052 69.5056C639.555 69.5056 638.96 69.1888 638.74 67.3597C638.019 61.3498 637.451 55.2452 634.21 50.0095C633.802 49.3529 634.168 48.8989 634.576 48.458C637.591 45.182 638.552 40.8281 638.769 36.5526C639.085 30.2945 639.409 23.9449 637.576 17.7816C636.808 15.1947 635.403 13.2219 633.641 11.4353C631.62 9.38736 629.12 8.63612 626.522 8.06453C624.921 7.71178 623.385 7.33943 621.7 7.75098C618.129 8.62306 614.495 9.14239 610.902 9.92955C605.381 11.1413 599.795 12.0101 594.259 13.137C588.714 14.2671 583.199 15.5573 577.663 16.7233C576.308 17.0075 574.909 17.0499 573.537 17.2557C572.957 17.3406 572.716 17.1283 572.412 16.56C571.412 14.6917 570.377 12.8594 568.808 11.432C565.492 8.41076 561.537 7.45375 557.444 7.45048C450.999 7.40476 344.554 7.42109 238.109 7.39496C231.519 7.39496 224.93 7.30677 218.34 7.19245C208.712 7.02587 199.095 6.57513 189.467 6.42162C182.975 6.3171 176.481 6.26157 169.996 6.20932C157.186 6.1048 144.381 5.43849 131.58 5.50708C94.7482 5.71285 57.9103 4.6056 21.0872 6.17339C17.6198 6.32037 14.1166 6.20605 10.6343 7.28064C7.59551 8.22131 6.0002 10.2725 5.44958 13.2513C4.32751 19.32 5.51209 25.2188 7.25621 30.9837C8.58961 35.3898 10.2653 39.649 11.932 43.9212C13.4708 47.8701 15.3488 51.6164 17.1406 55.3987C18.9323 59.181 20.98 62.8425 23.2539 66.3406C26.0249 70.5998 28.8494 74.7577 32.8675 77.7299C35.1384 79.412 37.6802 80.3168 40.3291 79.5982C44.4662 78.4714 48.7223 78.3669 52.9011 77.6483C58.2079 76.737 63.4849 75.4958 68.8423 74.9406C70.0239 74.8165 71.2829 75.019 72.3811 74.6434C75.7682 73.4773 79.3368 73.7974 82.7536 72.9057C87.1229 71.7658 91.6112 71.351 96.0489 70.6324C98.2007 70.2862 100.311 69.5938 102.466 69.3423C107.773 68.7184 113.041 67.8594 118.303 66.8893C119.928 66.5888 121.601 66.1446 123.624 66.4778C121.868 67.4544 120.356 67.9117 118.833 68.3689C116.172 69.1692 113.484 69.9171 110.913 70.995C104.966 73.4904 98.9061 75.6298 92.8553 77.7691C88.3997 79.3435 83.9769 81.006 79.5809 82.7534C76.1521 84.1154 72.6222 85.1704 69.2798 86.8101C66.7559 88.0447 64.2082 89.2271 61.6307 90.3213C60.1068 90.968 58.8359 91.9315 57.8507 93.3229C54.9161 97.4678 56.1899 101.805 57.9519 105.735C60.3092 110.993 63.598 115.67 67.0922 120.126C71.4763 125.721 75.9527 131.244 80.9053 136.231C86.0812 141.448 91.4802 146.438 97.8019 149.956C101.01 151.743 104.612 152.154 107.835 150.335C112.573 147.66 117.327 145.004 122.074 142.339C127.294 139.409 132.467 136.375 137.702 133.475C140.595 131.871 143.569 130.355 146.325 128.432C146.792 128.105 147.304 127.654 147.977 127.974C147.849 128.588 147.373 128.856 147.006 129.167C141.405 133.912 135.72 138.531 130.22 143.424C127.372 145.955 124.613 148.571 122.193 151.596C121.565 152.38 121.163 153.294 120.904 154.316C119.981 157.942 121.187 160.882 123.458 163.331C128.44 168.701 134.312 172.722 140.387 176.406C146.128 179.888 151.956 183.164 158.001 185.986C162.367 188.027 166.799 189.856 171.424 190.96C176.704 192.221 181.407 191.205 184.847 186.038C185.785 184.63 187.098 183.523 188.24 182.279C187.08 185.104 185.663 187.701 184.41 190.389C181.722 196.144 182.827 201.092 188.121 203.686C192.282 205.724 196.794 206.815 201.25 207.641C206.351 208.585 211.423 209.862 216.632 210.156C222.254 210.473 227.817 211.776 233.487 211.41C237.612 211.142 241.779 211.93 245.856 210.345C248.362 209.372 250.13 207.85 251.279 205.221C252.008 203.552 252.496 201.788 253.205 200.119C254.996 195.899 256.541 191.568 258.065 187.22C258.687 185.444 259.128 183.494 260.425 181.998C259.511 185.914 259.568 189.951 258.919 193.89C258.175 198.437 257.571 203.016 258.696 207.608C259.273 209.963 260.64 211.531 262.809 212.037C266.175 212.821 269.339 211.387 272.586 210.816C275.831 210.247 278.73 208.513 281.902 207.706C283.715 207.246 285.584 206.717 287.206 205.766C290.831 203.643 294.721 202.245 298.466 200.455C303.856 197.878 309.21 195.288 314.029 191.522C316.705 189.428 318.106 186.727 317.794 183.053C317.657 181.462 317.621 179.858 317.538 178.261L317.541 178.258Z" fill="#252525"/>
<path d="M308.538 135.741C308.255 136.95 308.672 138.083 308.808 139.217C309.728 146.758 310.326 154.339 311.02 161.907C311.663 168.939 312.258 175.978 312.928 183.01C313.059 184.398 312.672 185.411 311.8 186.365C310.225 188.089 308.302 189.246 306.362 190.304C302.639 192.335 298.957 194.449 295.019 196.013C290.701 197.728 286.563 199.991 282.248 201.722C277.134 203.774 271.982 205.769 266.58 206.762C263.643 207.304 263.149 206.821 263.047 203.61C262.866 197.908 264.137 192.388 264.824 186.799C265.714 179.587 266.744 172.395 267.857 165.222C268.881 158.634 270.086 152.076 271.229 145.511C271.842 141.99 272.503 138.479 273.128 134.961C273.17 134.722 273.099 134.461 273.066 134.036C272.363 134.575 272.206 135.294 271.991 135.905C266.914 150.554 261.107 164.87 255.61 179.326C252.767 186.806 249.937 194.292 247.264 201.847C246.359 204.404 244.642 205.247 242.502 205.57C237.963 206.256 233.403 206.06 228.847 205.841C223.349 205.58 217.885 204.959 212.444 204.077C207.349 203.251 202.253 202.425 197.253 201.007C194.899 200.341 192.547 199.707 190.321 198.626C187.645 197.326 187.249 196.281 188.55 193.469C191.836 186.368 195.997 179.868 200.128 173.352C202.958 168.887 205.744 164.386 208.646 159.977C214.998 150.322 221.388 140.696 227.805 131.094C230.766 126.665 233.829 122.317 236.835 117.924C237.034 117.633 237.162 117.277 237.406 116.781C236.502 116.804 236.147 117.428 235.743 117.911C231.412 123.072 227.117 128.268 222.766 133.409C216.932 140.304 211.06 147.154 205.209 154.032C197.092 163.57 188.86 172.996 180.931 182.72C178.067 186.231 175.038 186.541 171.332 185.411C163.406 182.994 155.995 179.205 148.703 175.135C142.828 171.856 137.042 168.378 131.768 163.988C129.762 162.315 127.619 160.784 126.223 158.393C125.14 156.537 125.25 155.904 126.637 154.264C129.143 151.298 132.08 148.868 134.917 146.331C141.983 140.004 149.346 134.095 156.697 128.183C164.847 121.631 173.106 115.239 181.344 108.818C188.854 102.965 196.402 97.1705 203.935 91.3534C205.893 89.8444 207.863 88.355 209.974 86.7512C209.066 86.307 208.563 86.7447 208.081 87.0485C201.676 91.0725 195.074 94.6947 188.529 98.428C181.496 102.439 174.433 106.391 167.388 110.379C159.683 114.743 151.98 119.107 144.286 123.49C137.735 127.22 131.205 130.999 124.648 134.716C118.487 138.211 112.282 141.611 106.136 145.138C104.025 146.35 102.064 146.102 100.037 145.053C96.1858 143.058 92.9 140.151 89.626 137.244C84.6853 132.854 80.2298 127.889 75.9111 122.794C70.8097 116.774 65.9821 110.5 62.3986 103.207C61.7528 101.893 61.3539 100.482 61.1575 99.0355C60.9224 97.3175 61.8807 96.3148 63.2022 95.6452C68.2947 93.0747 73.5122 90.8504 78.8101 88.8416C84.7597 86.5847 90.6737 84.2199 96.6859 82.1557C101.88 80.3723 106.999 78.3276 112.169 76.4594C115.606 75.2182 119.077 74.0848 122.532 72.909C131.762 69.7636 141.009 66.6672 150.221 63.4532C157.587 60.8827 164.981 58.4134 172.401 56.0258C177.963 54.2359 183.514 52.3872 189.068 50.5614C189.297 50.4863 189.514 50.3622 189.886 50.1923C189.303 49.6469 188.767 49.8559 188.288 49.9343C176.532 51.8745 164.781 53.8342 153.028 55.7776C143.033 57.4303 133.036 59.07 123.041 60.7227C116.916 61.7352 110.814 62.9894 104.659 63.6982C101.198 64.0967 97.8317 65.0602 94.4 65.3868C86.5872 66.1315 78.9619 68.1272 71.2056 69.2345C60.5473 70.7565 49.9219 72.5856 39.2815 74.2677C37.9571 74.4768 36.7308 74.0979 35.6087 73.2846C32.8675 71.2954 30.8347 68.5453 28.9537 65.6743C21.495 54.2817 15.9144 41.8308 11.8249 28.5634C10.6463 24.7452 9.85759 20.8093 9.88735 16.7494C9.90223 14.6525 10.7743 12.3629 13.7238 12.1702C17.471 11.9252 21.2301 11.8991 24.9654 11.5496C29.2096 11.1544 33.4539 11.2426 37.6981 11.076C42.6061 10.88 47.514 10.9747 52.419 10.8898C57.571 10.8016 62.732 11.027 67.878 10.8212C71.8336 10.6644 75.7891 10.8016 79.7417 10.7363C83.8936 10.6677 88.0605 10.8049 92.2214 10.8212C101.394 10.8571 110.567 10.8767 119.74 10.9453C129.753 11.0237 139.765 11.1348 149.778 11.2654C157.745 11.3699 165.713 11.5039 173.68 11.6606C179.675 11.7782 185.669 11.9873 191.663 12.0852C197.556 12.1832 203.45 12.2159 209.34 12.242C325.41 12.7842 441.484 12.3204 557.555 12.5066C561.531 12.5131 565.234 13.5714 567.618 17.6117C568.433 18.9901 568.612 20.5578 568.924 22.0832C569.127 23.0565 569.43 23.4223 570.409 23.2198C578.523 21.5344 586.642 19.8948 594.75 18.1735C601.783 16.6808 608.884 15.5703 615.9 13.9339C618.301 13.3721 620.778 12.7189 623.221 12.7156C627.531 12.7091 632.254 14.4925 633.391 20.2574C634.701 26.9107 634.674 33.626 633.457 40.3218C632.838 43.7219 630.784 45.796 628.102 47.256C627.465 47.6022 627.004 47.7525 627.674 48.5952C631.123 52.9458 632.957 58.0672 633.737 63.7309C634.13 66.5953 634.213 69.4631 634.213 72.3472C634.213 74.5159 634.231 74.5323 636.201 74.5323C659.318 74.5323 682.432 74.5225 705.549 74.5519C707.987 74.5519 710.371 75.0483 712.52 76.4496C715.761 78.5661 716.883 81.9891 717.029 85.8302C717.181 89.8509 717.208 93.8945 717.023 97.9119C716.833 102.008 715.711 105.741 712.222 108.018C710.383 109.216 708.32 109.628 706.24 109.648C699.445 109.713 692.647 109.716 685.852 109.638C684.388 109.621 684.016 110.144 684.025 111.689C684.072 121.432 684.129 131.178 683.977 140.918C683.914 144.835 682.819 148.46 679.367 150.547C677.512 151.668 675.45 152.167 673.378 152.167C629.826 152.184 586.273 152.118 542.721 152.193C538.566 152.2 534.396 152.402 530.235 152.36C477.908 151.821 425.579 152.233 373.249 152.203C366.493 152.2 359.677 152.465 353.081 154.656C348.831 156.067 344.908 158.177 341.643 161.401C339.646 163.374 338.241 166.052 336.503 168.351C333.53 172.284 330.592 176.259 326.931 179.479C325.401 180.825 324.767 180.672 323.791 178.83C321.386 174.289 319.854 169.328 318.214 164.442C315.148 155.309 312.279 146.095 309.311 136.921C309.178 136.502 309.216 135.908 308.535 135.754L308.538 135.741ZM484.004 85.1769C475.572 85.1769 467.14 85.1802 458.708 85.1704C457.806 85.1704 456.952 85.2945 456.095 85.6538C449.776 88.306 445.443 94.7698 445.383 102.204C445.282 114.449 445.365 126.697 445.332 138.946C445.329 140.177 445.749 140.556 446.821 140.539C450.095 140.494 453.368 140.53 456.642 140.52C458.518 140.517 458.532 140.484 458.532 138.403C458.532 126.7 458.526 114.998 458.538 103.295C458.541 100.231 459.649 99.0225 462.402 99.0159C468.155 99.0061 473.908 99.0127 479.664 99.0159C488.394 99.0159 497.123 99.0061 505.853 99.029C508.118 99.0355 509.859 100.607 510.35 102.968C510.77 104.987 509.764 107.273 507.963 108.289C506.826 108.932 505.576 108.945 504.332 108.945C494.858 108.945 485.385 108.922 475.911 108.952C466.045 108.981 459.336 118.799 462.024 129.219C463.61 135.369 469.048 140.435 474.578 140.468C490.4 140.569 506.222 140.51 522.047 140.539C523.128 140.539 523.55 140.138 523.532 138.923C523.485 135.493 523.517 132.064 523.517 128.634C523.517 127.021 522.77 126.213 521.276 126.211C506.743 126.211 492.209 126.211 477.676 126.207C476.986 126.207 476.283 126.286 475.617 125.998C475.054 125.757 474.724 125.296 474.724 124.633C474.724 124.006 475.122 123.669 475.605 123.444C476.221 123.157 476.873 123.232 477.515 123.232C487.04 123.228 496.564 123.222 506.085 123.235C507.535 123.235 508.972 123.104 510.353 122.663C516.791 120.606 521.238 116.138 522.952 108.984C524.634 101.965 523.199 95.5505 518.49 90.3082C515.44 86.9113 511.844 84.9483 507.231 85.1018C499.501 85.3598 491.757 85.1704 484.019 85.1736L484.004 85.1769ZM270.384 23.112C260.065 23.112 249.749 23.1872 239.43 23.063C236.674 23.0304 234.418 23.9678 232.302 25.7381C224.721 32.0713 224.742 44.7214 232.323 51.0024C235.049 53.2593 238.082 54.3013 241.466 54.3013C256.595 54.2947 271.723 54.2947 286.855 54.3045C289.605 54.3045 291.54 56.2087 291.674 58.9622C291.799 61.5262 289.971 63.708 287.349 64.0738C286.665 64.1685 285.962 64.1457 285.269 64.1457C266.619 64.1489 247.966 64.1457 229.317 64.1522C227.454 64.1522 227.367 64.2502 227.361 66.2524C227.349 69.6264 227.466 73.0102 227.305 76.3744C227.224 78.05 227.599 78.5105 229.126 78.5073C248.52 78.4583 267.917 78.4583 287.31 78.4909C289.956 78.4942 292.436 77.8148 294.778 76.6063C302.323 72.7097 306.174 63.8354 304.356 54.7063C302.65 46.1422 295.349 39.7763 287.165 39.7665C272.334 39.7502 257.503 39.7633 242.669 39.76C242.124 39.76 241.573 39.7796 241.035 39.6947C240.377 39.5934 239.936 39.1362 239.918 38.3882C239.901 37.6206 240.356 37.1699 241.002 37.0556C241.585 36.9543 242.186 36.9706 242.782 36.9706C262.821 36.9674 282.861 36.9543 302.9 36.9968C304.305 36.9968 304.838 36.5656 304.793 34.9717C304.704 31.7087 304.689 28.436 304.799 25.1763C304.856 23.4779 304.29 23.0728 302.823 23.0826C292.01 23.1414 281.197 23.1153 270.381 23.1153L270.384 23.112ZM420.224 23.1186C407.73 23.1186 395.232 23.1284 382.737 23.1022C381.624 23.1022 381.02 23.2688 381.029 24.7615C381.085 33.4692 380.892 42.1803 381.106 50.8783C381.309 59.1124 384.862 65.168 391.901 68.4506C394.473 69.6493 397.277 69.8779 400 70.4364C403.795 71.2138 407.572 72.0989 411.37 72.86C417.703 74.1305 424.046 75.3423 430.385 76.5802C433.6 77.2073 436.799 78.2166 440.032 78.3766C445.969 78.6706 451.928 78.4485 457.881 78.4844C459.083 78.491 459.387 77.9749 459.321 76.6978C459.208 74.4735 459.178 72.2296 459.321 70.0118C459.416 68.5191 458.934 68.0129 457.657 67.7614C449.517 66.1642 441.386 64.4952 433.254 62.8457C424.733 61.1211 416.209 59.3933 407.688 57.6655C407.262 57.5773 406.602 57.5936 406.602 57.0482C406.602 56.3655 407.277 56.6399 407.679 56.5778C407.923 56.5386 408.173 56.5713 408.423 56.5713C419.284 56.5713 430.141 56.5778 441.002 56.5778C451.755 56.5778 459.181 48.5102 459.25 36.7387C459.274 32.8193 459.169 28.8998 459.297 24.9868C459.348 23.406 458.896 23.0859 457.565 23.0924C445.118 23.1414 432.671 23.1218 420.227 23.1218L420.224 23.1186ZM502.871 23.1218C499.249 23.1218 495.629 23.1218 492.007 23.1218C483.078 23.1218 474.152 23.1218 465.223 23.1284C464.473 23.1284 463.631 22.854 463.64 24.3303C463.693 33.4203 463.592 42.5102 463.72 51.6001C463.845 60.5169 470.098 68.1239 478.123 69.6068C483.882 70.6716 489.611 71.916 495.355 73.0788C503.636 74.7544 511.886 76.6586 520.208 78.0337C527.035 79.1638 533.97 78.2852 540.854 78.4485C541.813 78.4714 542.099 77.8932 542.063 76.8644C541.989 74.6368 541.902 72.3929 542.051 70.1751C542.155 68.6008 541.605 68.0521 540.304 67.794C531.384 66.0303 522.47 64.2339 513.559 62.4178C506.109 60.899 498.668 59.3378 491.224 57.7831C490.531 57.6393 489.245 57.8516 489.331 57.0612C489.436 56.0944 490.662 56.5876 491.385 56.5844C502.496 56.555 513.606 56.6301 524.717 56.5386C530.19 56.4929 534.676 53.9583 538.104 49.2615C541.036 45.244 541.953 40.5145 541.989 35.5074C542.012 32.0256 541.902 28.5372 542.036 25.0587C542.099 23.4158 541.625 23.0794 540.221 23.0859C527.771 23.1414 515.321 23.1186 502.871 23.1186V23.1218ZM318.154 85.5068C310.07 85.5068 301.987 85.5231 293.903 85.497C291.885 85.4905 290.468 86.307 289.822 88.5052C289.48 89.6712 288.769 90.576 287.947 91.3958C284.519 94.809 280.23 95.9685 275.875 96.8276C269.973 97.9936 266.821 102.305 266.759 108.054C266.717 111.816 267.997 115.282 269.554 118.59C269.792 119.093 269.985 119.832 270.628 119.805C271.274 119.779 271.423 119.035 271.607 118.506C272.232 116.703 273.271 115.158 274.786 114.348C277.265 113.022 279.995 112.633 282.745 113.061C285.885 113.551 288.956 114.341 291.959 115.53C296.475 117.313 300.963 119.152 305.261 121.507C309.133 123.627 312.88 125.766 317.422 126.204C323.759 126.812 330.056 128.043 336.363 129.062C341.349 129.869 346.337 130.649 351.322 131.453C353.159 131.75 353.171 131.717 353.174 129.732C353.174 119.009 353.177 108.289 353.174 97.5657C353.174 90.4225 348.67 85.5166 342.113 85.5101C334.128 85.5035 326.143 85.5101 318.16 85.5101L318.154 85.5068ZM571.689 48.6866C572.052 47.9582 572.612 48.0236 573.07 47.9288C577.306 47.0666 581.544 46.2467 585.779 45.391C594.303 43.6697 602.828 41.9353 611.349 40.1977C615.242 39.404 619.129 38.5907 623.022 37.7905C623.831 37.6239 624.376 37.294 624.367 36.2161C624.334 32.2967 624.349 28.3805 624.355 24.461C624.355 23.455 624.013 23.1578 623.061 23.3701C618.063 24.4773 613.06 25.5617 608.045 26.5644C599.863 28.2008 591.663 29.7359 583.478 31.3756C576.076 32.8585 568.689 34.4197 561.293 35.9451C559.689 36.2749 559.293 35.9777 559.272 34.2009C559.233 31.098 559.153 27.9885 559.314 24.8987C559.394 23.3341 558.909 23.0728 557.668 23.1022C554.546 23.1741 551.42 23.1251 548.295 23.1251C546.932 23.1251 546.25 23.8644 546.248 25.3429C546.248 42.324 546.248 59.3051 546.248 76.2862C546.248 76.6129 546.263 76.9395 546.248 77.2661C546.212 78.0957 546.569 78.4485 547.316 78.4452C550.986 78.4322 554.656 78.4387 558.326 78.4387C559.061 78.4387 559.34 78.1317 559.332 77.2498C559.272 70.9917 559.269 64.7336 559.254 58.4755C559.254 57.8778 559.272 57.2768 559.326 56.6823C559.358 56.3165 559.358 55.8331 559.721 55.6927C560.221 55.5 560.391 56.0422 560.599 56.3786C563.591 61.1832 567.752 63.2769 573.026 63.2311C583.589 63.1397 594.155 63.205 604.718 63.205C605.262 63.205 605.81 63.1887 606.354 63.2311C609.515 63.4598 611.256 65.4358 611.298 68.9111C611.331 71.5763 611.358 74.2481 611.248 76.9101C611.2 78.0761 611.486 78.4714 612.533 78.4615C616.004 78.4224 619.477 78.4126 622.947 78.4681C624.087 78.4877 624.391 77.9684 624.37 76.8088C624.32 73.6537 624.346 70.4952 624.343 67.34C624.343 65.5208 623.98 63.7668 623.421 62.0781C620.703 53.893 614.694 49.1863 606.756 49.1504C595.896 49.1014 585.032 49.1504 574.172 49.1471C573.353 49.1471 572.487 49.3333 571.686 48.6931L571.689 48.6866ZM401.973 85.1802C393.443 85.1802 384.91 85.1802 376.38 85.1802C375.639 85.1802 374.936 85.2292 374.213 85.5787C366.939 89.1095 363.388 95.2467 363.394 103.938C363.4 115.533 363.421 127.128 363.341 138.72C363.332 140.164 363.713 140.52 364.909 140.5C368.082 140.445 371.258 140.471 374.433 140.474C376.407 140.474 376.422 140.474 376.425 138.299C376.425 126.704 376.425 115.109 376.428 103.517C376.428 100.159 377.698 98.7644 380.764 98.7644C394.652 98.7612 408.542 98.7579 422.43 98.7742C423.266 98.7742 424.123 98.8428 424.936 99.0453C427.939 99.7868 429.353 103.683 427.704 106.505C426.587 108.419 424.942 108.975 422.98 108.971C413.307 108.949 403.634 108.952 393.964 108.965C385.705 108.975 379.493 115.801 379.454 124.888C379.437 129.568 379.478 134.252 379.404 138.929C379.383 140.239 379.898 140.504 380.916 140.494C384.24 140.461 387.562 140.428 390.887 140.5C392.146 140.526 392.526 140.001 392.512 138.681C392.464 134.327 392.482 129.973 392.5 125.616C392.509 123.712 393.137 123.072 394.833 123.078C404.06 123.101 413.283 123.137 422.51 123.117C424.138 123.114 425.811 123.062 427.391 122.68C434.713 120.923 441.752 113.462 441.323 103.393C441.103 98.1667 439.615 93.7148 436.195 90.135C433.144 86.9407 429.707 84.9287 425.183 85.092C417.453 85.3762 409.709 85.1704 401.97 85.1704L401.973 85.1802ZM559.168 116.912C559.168 109.566 559.165 102.217 559.174 94.8711C559.174 94.3518 559.001 93.6724 559.552 93.4013C560.123 93.1204 560.427 93.741 560.751 94.1231C568.522 103.278 576.291 112.434 584.056 121.595C587.565 125.737 591.101 129.856 594.562 134.046C599.327 139.814 606.673 142.081 612.807 139.586C619.87 136.711 624.257 130.238 624.305 122.281C624.376 110.471 624.311 98.6599 624.343 86.8525C624.346 85.5917 624.01 85.1214 622.822 85.1475C619.599 85.2194 616.376 85.1704 613.152 85.1704C611.779 85.1704 611.092 85.9096 611.09 87.3882C611.09 101.649 611.09 115.906 611.078 130.166C611.078 130.724 611.316 131.499 610.658 131.75C610.117 131.956 609.804 131.303 609.477 130.924C606.792 127.795 604.128 124.646 601.452 121.504C597.425 116.774 593.404 112.038 589.372 107.315C584.288 101.361 579.27 95.3349 574.076 89.4981C571.481 86.5814 568.296 84.7817 564.359 85.1442C562.733 85.2945 561.088 85.1834 559.451 85.1638C558.596 85.1541 557.79 85.3141 556.983 85.644C550.313 88.3876 546.013 95.0246 545.971 102.997C545.908 114.916 545.971 126.834 545.932 138.753C545.929 140.118 546.361 140.572 547.572 140.549C550.795 140.491 554.022 140.458 557.242 140.562C558.721 140.611 559.221 140.141 559.204 138.456C559.126 131.273 559.171 124.088 559.171 116.905L559.168 116.912ZM668.071 85.1802C655.473 85.1802 642.874 85.1965 630.275 85.1541C628.983 85.1508 628.525 85.5754 628.549 87.0125C628.608 90.4943 628.582 93.9794 628.51 97.4612C628.483 98.7481 629.055 98.8134 629.992 98.8069C639.713 98.771 649.437 98.7742 659.16 98.7808C661.018 98.7808 661.327 99.1172 661.324 101.165C661.318 104.101 661.226 107.041 661.193 109.974C661.083 119.554 661.166 129.134 661.131 138.714C661.125 140.046 661.553 140.572 662.777 140.553C665.949 140.5 669.125 140.543 672.301 140.536C674.334 140.533 674.349 140.513 674.352 138.23C674.36 126.037 674.363 113.845 674.372 101.649C674.372 98.7938 674.393 98.7742 677.06 98.7742C686.435 98.7742 695.811 98.7742 705.186 98.7742C707.261 98.7742 707.338 98.6795 707.341 96.3572C707.347 93.3098 707.252 90.2559 707.377 87.215C707.448 85.5003 706.892 85.1377 705.424 85.1442C692.974 85.203 680.524 85.1769 668.074 85.1802H668.071ZM344.971 78.4942C356.23 78.4942 367.49 78.4942 378.746 78.4942C380.145 78.4942 380.845 77.7081 380.847 76.136C380.847 72.9776 380.847 69.8224 380.847 66.6639C380.847 64.8501 380.038 63.9421 378.419 63.9399C360.564 63.9399 342.709 63.9399 324.854 63.9399C323.163 63.9399 322.317 63.0025 322.315 61.1277C322.315 49.1537 322.288 37.1797 322.345 25.2057C322.354 23.5464 321.901 23.0369 320.398 23.0892C317.178 23.2035 313.949 23.197 310.728 23.0892C309.314 23.0434 309.008 23.5791 309.011 25.0554C309.058 42.0921 309.041 59.1287 309.041 76.1654C309.041 78.4844 309.041 78.4942 311.192 78.4942C322.452 78.4942 333.711 78.4942 344.968 78.4942H344.971ZM541.343 112.995C541.343 104.346 541.322 95.7007 541.366 87.0517C541.372 85.6701 541.045 85.1149 539.697 85.1508C536.378 85.2422 533.054 85.2586 529.738 85.1442C528.291 85.0953 527.973 85.7126 528.006 87.1399C528.077 90.2918 528.027 93.447 528.027 96.6022C528.027 110.418 528.027 124.231 528.027 138.047C528.027 139.718 528.807 140.555 530.369 140.559C533.393 140.562 536.417 140.477 539.438 140.595C540.965 140.654 541.384 140.072 541.372 138.446C541.31 129.96 541.343 121.478 541.343 112.992V112.995Z" fill="#252525"/>
<path d="M423.757 42.3078C418.45 42.3078 413.146 42.3437 407.839 42.298C402.634 42.2522 398.532 44.5027 395.547 49.1897C395.327 49.5327 395.175 50.0879 394.699 49.9507C394.223 49.8168 394.294 49.2583 394.294 48.8369C394.285 45.3551 394.3 41.8733 394.285 38.3883C394.279 37.2908 394.77 36.7944 395.735 36.778C396.181 36.7715 396.628 36.7552 397.074 36.7552C412.447 36.7552 427.816 36.7552 443.189 36.7552C443.287 36.7552 443.389 36.7454 443.487 36.7552C444.38 36.8727 445.579 36.4057 445.99 37.6175C446.389 38.7998 445.603 39.7862 444.904 40.6485C443.871 41.9191 442.52 42.3143 441.016 42.311C435.263 42.3012 429.513 42.3078 423.76 42.311L423.757 42.3078Z" fill="#252525"/>
<path d="M502.832 36.7519C510.463 36.7519 518.094 36.7519 525.726 36.7519C526.22 36.7519 526.72 36.7323 527.211 36.7845C528.568 36.925 528.919 37.5554 528.467 38.986C527.851 40.9359 526.181 42.2522 524.11 42.2979C521.782 42.3502 519.452 42.3143 517.124 42.3143C508.451 42.3143 499.778 42.4024 491.108 42.2849C485.581 42.2097 481.164 44.3034 478.03 49.3889C477.837 49.7025 477.646 50.1205 477.235 49.954C476.875 49.807 476.822 49.3562 476.819 48.9774C476.816 45.3878 476.801 41.8015 476.846 38.2119C476.863 36.8694 477.78 36.7453 478.747 36.7453C483.256 36.7519 487.766 36.7453 492.275 36.7453C495.793 36.7453 499.311 36.7453 502.829 36.7453L502.832 36.7519Z" fill="#252525"/>
<path d="M295.123 96.71C298.126 97.2554 301.058 96.9876 303.993 96.5075C304.555 96.416 305.147 96.5826 305.38 97.1966C305.686 98.0099 304.933 98.1275 304.528 98.4574C302.341 100.231 300.082 101.848 297.355 102.491C296.844 102.612 296.287 102.824 295.995 102.315C295.242 100.995 294.486 99.6528 293.957 98.219C293.593 97.2358 294.284 96.7557 295.123 96.71Z" fill="#252525"/>
</svg>
